<svg width="512" height="512" viewBox="0 0 512 512" fill="none" xmlns="http://www.w3.org/2000/svg">
<rect width="512" height="512" rx="110" fill="#141414"/>
<path d="M406.956 254.311C406.94 249.865 405.133 245.605 401.931 242.463C398.729 239.322 394.391 237.552 389.866 237.541H271.136C266.603 237.541 262.256 239.31 259.051 242.459C255.846 245.608 254.045 249.878 254.045 254.331V260.8C254.045 265.253 255.846 269.524 259.051 272.673C262.256 275.821 266.603 277.59 271.136 277.59H389.782C394.24 277.587 398.521 275.876 401.716 272.822C404.91 269.768 406.768 265.61 406.893 261.233C406.949 258.953 406.97 256.645 406.956 254.311Z" fill="white"/>
<path d="M305.927 336.914C292.077 344.693 276.438 348.719 260.556 348.595C226.549 348.595 198.832 332.085 183.509 305.957C178.303 296.997 174.623 287.233 172.62 277.064C171.22 270.045 170.529 262.903 170.558 255.745C170.558 201.674 207.37 162.875 258.659 162.875C274.696 162.867 290.376 167.614 303.72 176.516C314.426 183.585 323.082 193.351 328.818 204.831H394.007C389.834 185.597 380.802 167.755 367.775 153.01C342.677 124.343 303.39 106.471 259.03 106.471C169.362 106.471 104.771 169.169 104.771 255.745C104.778 262.874 105.239 269.995 106.152 277.064C107.401 286.887 109.604 296.564 112.731 305.957C132.55 365.519 187.881 405.02 259.03 405.02C305.205 405.02 343.708 387.952 369.878 359.038C383.574 343.74 393.746 325.62 399.678 305.957H335.747C329.106 319.016 318.723 329.794 305.927 336.914Z" fill="white"/>
</svg>
